<?xml version="1.0" encoding="UTF-8"?>
<svg xmlns="http://www.w3.org/2000/svg" viewBox="0 0 800 800">
  <defs>
    <style>
      .cls-1 {
        fill: #fff;
      }

      .cls-2 {
        fill: none;
        stroke: #fff;
        stroke-miterlimit: 10;
        stroke-width: 50px;
      }
    </style>
  </defs>
  <g id="Layer_1">
    <path class="cls-1" d="M436.8,12.2c-31.09-2.97-63.05-2.22-95.33,2.63h0c-.07,0-.13.02-.2.03-.03,0-.03,0-.06,0-.05,0-.11.02-.16.02-.01,0-.03,0-.04,0-.06,0-.13.02-.19.03-.03,0-.04,0-.07.01-.04,0-.09.01-.14.02-.03,0-.04,0-.07.01-.06,0-.12.02-.18.03-.03,0-.04,0-.07.01-.04,0-.09.01-.13.02-.03,0-.05,0-.07.01-.06,0-.12.02-.18.03-.03,0-.05,0-.08.01-.04,0-.08.01-.12.02-.03,0-.06,0-.09.01-.06,0-.11.02-.17.03-.03,0-.05,0-.08.01-.04,0-.08.01-.12.02-.03,0-.06,0-.09.01-.04,0-.09.01-.14.02-.04,0-.07.01-.1.02-.04,0-.08.01-.12.02-.03,0-.07.01-.1.02-.04,0-.07.01-.1.02-.05,0-.1.02-.15.02-.04,0-.07.01-.11.02-.04,0-.07.01-.11.02-.03,0-.05,0-.08.01-.08.01-.16.03-.24.04,0,0-.02,0-.03,0-.04,0-.08.01-.12.02-.03,0-.05,0-.07.01-.13.02-.26.04-.39.06-.02,0-.05,0-.07.01-.04,0-.08.01-.12.02-.02,0-.03,0-.04,0-.08.01-.16.03-.24.04-.02,0-.04,0-.06,0-.04,0-.08.01-.12.02-.02,0-.04,0-.06.01-.08.01-.14.02-.22.04-.02,0-.04,0-.06,0-.05,0-.08.01-.13.02,0,0-.02,0-.03,0-.09.01-.18.03-.27.04,0,0-.01,0-.02,0-.05,0-.09.01-.14.02-.01,0-.02,0-.04,0-.14.02-.29.05-.43.07,0,0-.02,0-.03,0-.16.03-.29.05-.45.07,0,0,0,0,0,0-17.82,2.99-35.16,7.15-51.96,12.39h0c-.58.18-1.15.36-1.74.55,0,0-.01,0-.02,0-.19.06-.38.12-.57.18,0,0-.01,0-.01,0-.15.05-.27.09-.42.13,0,0-.01,0-.02,0-.15.05-.26.08-.41.13-.01,0-.03,0-.04.01-.12.04-.27.09-.39.13-.01,0-.03,0-.04.01-.13.04-.25.08-.38.12-.02,0-.04.01-.06.02-.04.01-.08.03-.12.04-.01,0-.02,0-.03.01-.08.03-.16.05-.25.08,0,0-.01,0-.02,0-.05.02-.08.03-.13.04-.01,0-.03,0-.04.01-.07.02-.16.05-.23.08-.01,0-.02,0-.04.01-.04.01-.08.03-.12.04-.02,0-.04.01-.06.02-.07.02-.15.05-.22.07-.01,0-.02,0-.03.01-.04.01-.08.03-.11.04-.02,0-.04.01-.07.02-.04.01-.07.02-.11.04-.05.02-.1.03-.14.05-.04.01-.07.02-.11.03-.02,0-.04.01-.07.02-.04.01-.07.02-.11.04-.02,0-.04.01-.07.02-.06.02-.12.04-.18.06-.03,0-.06.02-.08.03-.04.01-.06.02-.1.03-.03.01-.06.02-.09.03-.05.02-.1.03-.15.05-.03.01-.06.02-.09.03-.02,0-.07.02-.09.03-.03.01-.06.02-.1.03-.05.02-.1.03-.15.05-.03.01-.06.02-.1.03-.02,0-.07.02-.09.03-.03.01-.07.02-.1.03-.02,0-.07.02-.1.03-.05.02-.09.03-.14.05-.04.01-.05.02-.09.03-.03.01-.06.02-.09.03-.04.01-.06.02-.09.03-.05.02-.1.03-.16.05-.04.01-.05.02-.08.03-.04.01-.07.02-.1.03-.04.01-.05.02-.08.03-.05.02-.11.04-.16.05-.02,0-.04.01-.06.02-.04.01-.08.03-.12.04-.02,0-.05.02-.08.03-.05.02-.11.04-.17.06-.01,0-.04.01-.05.02-.04.01-.08.03-.13.04-.02,0-.05.02-.08.03-.04.01-.08.03-.13.04-.02,0-.07.03-.1.03-.04.01-.08.03-.12.04-.02,0-.06.02-.09.03-.04.01-.08.03-.11.04-.02,0-.04.01-.06.02-.05.02-.11.04-.16.06-.02,0-.06.02-.08.03-.04.01-.07.03-.11.04-.02,0-.05.02-.07.02-.05.02-.11.04-.16.06-.04.01-.04.01-.08.03-.04.01-.07.03-.11.04-.02,0-.05.02-.07.02-.05.02-.11.04-.17.06-.02,0-.04.01-.07.02-.04.01-.08.03-.12.04-.02,0-.05.02-.07.03-.05.02-.11.04-.16.06-.02,0-.05.02-.07.02-.04.01-.08.03-.12.04-.02,0-.04.01-.07.02-.05.02-.1.04-.15.05-.02,0-.04.01-.06.02-.05.02-.1.03-.15.05-.02,0-.04.01-.07.02-.05.02-.1.03-.15.05-.01,0-.02,0-.03.01-.06.02-.12.04-.18.06-.01,0-.03.01-.05.02-.05.02-.1.04-.16.05-.01,0-.02,0-.04.01-.06.02-.12.04-.18.06-.01,0-.03.01-.05.02-.05.02-.1.03-.15.05-.01,0-.04.01-.05.02-.06.02-.12.04-.18.06h-.03c-.06.03-.12.05-.17.07-.01,0-.02,0-.03,0-.07.02-.13.05-.2.07-.01,0,0,0,0,0-.06.02-.12.04-.18.06-.01,0-.03.01-.04.01-.13.04-.25.09-.38.13-.02,0-.02,0-.04.01-.13.04-.25.09-.38.13-.01,0-.03.01-.05.02-.06.02-.12.04-.18.06-.01,0,0,0,0,0-.07.02-.13.05-.2.07-.01,0-.02,0-.03.01-.06.02-.12.04-.18.06h-.01c-.07.03-.13.05-.2.08h-.01c-.07.03-.13.05-.19.07h-.01c-.13.05-.27.1-.4.15-.01,0,0,0-.01,0-.13.05-.27.1-.4.14h-.02c-.13.06-.27.1-.4.15h-.01c-.34.13-.69.25-1.03.38h0c-.28.1-.55.2-.83.31h0c-.28.1-.55.2-.83.31-.01,0,0,0,0,0-1.38.51-2.76,1.03-4.13,1.56h0c-6.93,2.67-13.76,5.52-20.48,8.56h0c-.26.12-.53.24-.79.36h0c-.13.06-.26.12-.39.18-.01,0,0,0-.01,0-.06.03-.13.06-.19.09h0c-.13.06-.26.12-.39.18h0c-.13.06-.26.12-.38.18-.01,0,0,0-.02,0-.13.06-.25.11-.38.17-.01,0-.01,0-.02.01-.12.06-.24.11-.37.17-.01,0-.03.01-.04.02-.12.05-.24.11-.36.17-.01,0-.03.01-.04.02-.05.02-.11.05-.17.08h-.01c-.06.03-.12.06-.18.09-.01,0-.02,0-.03.01-.05.02-.11.05-.16.07-.01,0-.02,0-.03.01-.06.03-.12.06-.18.08h-.03s-.1.06-.15.09c-.01,0-.03.01-.04.02-.06.03-.12.05-.17.08-.01,0-.02,0-.03.02-.05.02-.1.05-.15.07-.01,0-.02.01-.04.02-.06.03-.12.06-.18.08h-.01c-.05.03-.11.06-.17.08-.02.01-.02.01-.05.02-.05.02-.1.05-.15.07-.01,0-.02.01-.03.02-.06.03-.11.05-.16.08-.02.01-.04.02-.06.03-.04.02-.08.04-.12.06-.02.01-.03.02-.06.03-.05.03-.11.05-.16.08-.02.01-.04.02-.07.03-.03.02-.07.03-.1.05-.02.01-.03.02-.05.03l21.39,45.19c29.97-14.18,61.97-23.9,95.11-28.88,27.64-4.15,55.61-4.93,83.15-2.3l4.75-49.77h0ZM75.34,183.54c-38.47,57.43-61.85,125.16-65.47,196.86l49.94,2.52c3.09-61.1,22.82-120.42,57.08-171.55l-41.54-27.83h0ZM98.84,559.62l-44.19,23.39c33.26,62.82,82.88,114.71,142.42,150.89l25.97-42.73c-52.61-31.97-95.56-77.46-124.19-131.55h0ZM571.72,693.73c-37.43,22.01-78.39,36.47-121.76,42.99-17.57,2.64-35.41,3.93-53.02,3.82l-.3,50c19.56.12,39.37-1.24,59.3-4.16,0,0,0,0,0,0,.08-.01.15-.02.23-.03,0,0,0,0,.01,0,.16-.02.31-.05.47-.07,0,0,.01,0,.02,0,.07,0,.13-.02.2-.03.02,0,.04,0,.06,0,.06,0,.12-.02.18-.03.02,0,.04,0,.05,0,.07-.01.15-.02.22-.03.1-.01.19-.03.29-.04.01,0,0,0,.01,0,.09-.01.18-.03.27-.04.01,0,.02,0,.03,0,.09-.01.17-.03.26-.04.01,0,.03,0,.04,0,.08-.01.17-.03.25-.04.01,0,.04,0,.05,0,.08-.01.17-.03.25-.04.01,0,.04,0,.05,0,.08-.01.17-.03.25-.04.03,0,.03,0,.05,0,.08-.01.16-.03.24-.04.01,0,.04,0,.06,0,.08-.01.16-.03.24-.04.01,0,.04,0,.05,0,.08-.01.17-.03.25-.04.03,0,.02,0,.05,0,.09-.01.17-.03.26-.04.01,0,.03,0,.04,0,.08-.01.16-.03.25-.04.03,0,.02,0,.05,0,.08-.01.16-.03.24-.04.01,0,.04,0,.05,0,.08-.01.16-.03.24-.04.03,0,.03,0,.05,0,.08-.01.16-.03.24-.04.03,0,.04,0,.06-.01.08-.01.16-.03.23-.04.01,0,.06,0,.07-.01.08-.01.15-.02.23-.04.03,0,.05,0,.07-.01.08-.01.15-.03.23-.04.03,0,.04,0,.07-.01.07-.01.16-.03.23-.04.03,0,.05,0,.08-.01.07-.01.15-.03.23-.04.03,0,.05,0,.07-.01.07-.01.15-.03.23-.04.03,0,.05,0,.07-.01.08-.01.15-.02.23-.04.03,0,.04,0,.06-.01.07-.01.14-.02.21-.03.03,0,.07-.01.09-.02.07-.01.13-.02.2-.03.04,0,.04,0,.08-.01.07-.01.14-.02.21-.03.03,0,.05,0,.08-.01.07-.01.15-.02.22-.04.03,0,.05,0,.08-.01.07-.01.15-.02.22-.04.04,0,.05,0,.08-.01.07-.01.14-.02.21-.04.03,0,.06-.01.09-.02.07-.01.14-.02.21-.04.03,0,.07-.01.1-.02.07-.01.14-.02.21-.04.03,0,.06-.01.09-.02.07-.01.14-.02.21-.04.04,0,.06,0,.09-.02.07-.01.14-.02.21-.04.03,0,.06-.01.09-.02.06-.01.12-.02.18-.03.04,0,.09-.02.12-.02.06,0,.11-.02.17-.03.05,0,.07-.01.12-.02.06-.01.12-.02.18-.03.04,0,.08-.01.12-.02.06-.01.12-.02.17-.03.04,0,.07-.01.11-.02.06-.01.13-.02.19-.03.04,0,.06-.01.1-.02.06-.01.13-.02.19-.03.04,0,.06-.01.1-.02.06-.01.13-.02.2-.04.04,0,.07-.01.11-.02.06-.01.13-.02.19-.03.03,0,.09-.02.11-.02.06-.01.12-.02.19-.03.04,0,.08-.01.12-.02.06-.01.12-.02.19-.03.04,0,.07-.01.11-.02.06-.01.12-.02.18-.03.04,0,.08-.02.12-.02.05,0,.1-.02.15-.03.05,0,.1-.02.15-.03.04,0,.09-.02.13-.02.05,0,.12-.02.17-.03.04,0,.08-.02.13-.02.05,0,.11-.02.16-.03.04,0,.09-.02.13-.02.06-.01.11-.02.17-.03.04,0,.09-.02.12-.02.05,0,.12-.02.17-.03.04,0,.08-.01.12-.02.05,0,.11-.02.16-.03.05,0,.1-.02.15-.03.04,0,.09-.02.12-.02.06-.01.12-.02.18-.03.05,0,.07-.01.12-.02.06-.01.12-.02.18-.03.04,0,.09-.02.13-.02.04,0,.08-.02.12-.02.05,0,.13-.03.18-.04.04,0,.07-.01.11-.02.06-.01.13-.02.19-.04.03,0,.07-.01.1-.02.06-.01.13-.03.2-.04.03,0,.07-.01.1-.02.06-.01.14-.03.2-.04.03,0,.06-.01.09-.02.08-.01.14-.03.22-.04.03,0,.05-.01.08-.02.08-.01.15-.03.22-.04.03,0,.05,0,.08-.01.06-.01.15-.03.22-.04.03,0,.06-.01.09-.02.08-.01.15-.03.23-.05.02,0,.04,0,.06-.01.1-.02.19-.04.29-.06,0,0,0,0,0,0,.15-.03.3-.06.46-.09,0,0,0,0,.01,0,.1-.02.19-.04.29-.06,0,0,.02,0,.03,0,.09-.02.19-.04.28-.06,0,0,.02,0,.03,0,.1-.02.17-.03.27-.05.01,0,.03,0,.04,0,.08-.02.18-.04.26-.05.02,0,.03,0,.05-.01.08-.02.18-.04.25-.05.02,0,.03,0,.05,0,.09-.02.17-.04.26-.05.01,0,.02,0,.04,0,.1-.02.18-.04.28-.06,0,0,0,0,.01,0,.56-.11,1.11-.23,1.67-.34,0,0,.02,0,.03,0,.1-.02.18-.04.28-.06,0,0,0,0,.01,0,.1-.02.19-.04.29-.06,0,0,.01,0,.02,0,.1-.02.18-.04.29-.06,0,0,0,0,.01,0,.1-.02.19-.04.3-.06h0c41.92-8.9,80.98-24.35,116.25-45.09l-25.35-43.1h0ZM789.19,385.96l-49.96,1.92c2.36,61.23-12.02,122.06-41.57,175.92l43.83,24.05c12.07-22.01,22.06-45.22,29.74-69.36h0c.1-.33.2-.65.31-.97h0c.02-.06.04-.13.06-.19,0-.01,0,0,0-.01.04-.13.08-.25.12-.37,0-.01,0,0,0-.02.06-.19.12-.38.18-.56v-.02c.04-.13.08-.25.12-.38h0c.02-.07.04-.12.06-.19h0c.04-.14.08-.26.12-.39h0c.04-.13.08-.26.12-.39h0c.02-.07.04-.13.06-.19h0c.04-.14.08-.26.12-.39h0c.02-.06.04-.12.06-.19,0-.01,0,0,0-.02.04-.12.08-.25.11-.37,0-.01,0,0,0-.02.02-.06.04-.12.06-.18h0c.02-.07.04-.13.06-.19h0c.02-.07.04-.13.06-.19h0c.04-.14.08-.27.12-.39h0c.02-.06.04-.12.05-.19,0-.01,0,0,0-.02.04-.13.07-.25.11-.37,0-.01,0,0,0-.02.04-.13.07-.25.11-.37v-.02c.02-.06.04-.11.06-.17v-.02c.04-.13.08-.25.12-.37h0c.02-.07.03-.13.05-.19,0-.01,0-.01,0-.02.04-.12.07-.24.11-.37,0-.01,0-.02.01-.03.02-.05.03-.11.05-.16v-.02c.02-.06.04-.12.06-.18v-.02c.02-.06.04-.1.05-.16,0-.01,0-.02,0-.03.04-.12.07-.25.11-.37,0-.01,0,0,0-.02.02-.05.03-.1.05-.16,0-.01,0-.03.01-.04.04-.12.07-.24.11-.36,0-.01,0-.02,0-.03.02-.05.03-.11.05-.16v-.02c.02-.06.04-.12.06-.18v-.02c.02-.06.04-.11.05-.17,0-.01,0-.01,0-.03.02-.06.03-.12.05-.18h0c.02-.07.04-.13.05-.19,0-.01,0-.02,0-.03.01-.05.03-.11.04-.16,0-.01,0-.02,0-.03.04-.12.07-.24.1-.36,0-.01,0-.02.01-.04.02-.05.03-.11.05-.16v-.02c.02-.06.04-.12.06-.18,0-.01,0-.01,0-.03.02-.05.03-.1.04-.16,0-.01,0-.02,0-.03.02-.06.03-.12.05-.18h0c.02-.07.04-.13.05-.19v-.02c.02-.06.04-.12.05-.17,0-.01,0,0,0-.02.03-.12.07-.25.11-.37,0-.01,0-.01,0-.03.02-.06.03-.12.05-.17h0c.02-.07.03-.14.05-.2,0-.01,0-.02,0-.03.01-.05.03-.1.04-.16,0-.01,0-.02,0-.03.03-.12.07-.25.1-.37,0-.01,0-.01,0-.03.01-.05.03-.1.04-.16,0-.01,0-.03.01-.04.03-.12.07-.24.1-.36,0-.01.01-.04.01-.05.01-.05.03-.09.04-.14,0-.01,0-.03.01-.04.02-.06.03-.12.05-.18,0-.01,0-.02,0-.03.01-.05.03-.1.04-.15,0-.02,0-.02.01-.05.01-.05.03-.11.04-.16,0-.01,0-.01,0-.02.02-.06.03-.12.05-.18,0-.01,0-.03.01-.04.01-.05.03-.09.04-.14,0-.01.01-.04.01-.05.02-.06.03-.12.05-.18h0c.02-.06.03-.12.05-.18,0-.01,0-.03.01-.04.01-.05.03-.1.04-.15,0-.01,0-.02,0-.03.02-.06.03-.12.05-.18,0-.01,0-.02,0-.03.01-.05.03-.1.04-.15,0-.01,0-.02,0-.04.02-.06.03-.12.05-.18h0c.02-.06.03-.13.05-.19,0-.01,0-.01,0-.02.01-.05.03-.11.04-.16,0-.01,0-.02,0-.03.03-.12.07-.24.1-.37,0-.01,0-.02,0-.03.01-.05.03-.1.04-.15,0-.01,0-.02,0-.03.02-.06.03-.12.05-.18,0-.02,0-.02.01-.04.01-.05.03-.09.04-.14,0-.02,0-.02.01-.05.01-.05.03-.11.04-.16,0-.01,0,0,0-.01.02-.06.03-.12.05-.18,0-.01,0-.02,0-.03.01-.05.03-.1.04-.15,0-.01,0-.02,0-.04.03-.12.06-.24.1-.37,0-.01,0-.03,0-.04.01-.05.03-.11.04-.16v-.02c.02-.06.04-.12.05-.18,0-.01,0-.02,0-.03.01-.05.03-.1.04-.15,0-.01,0-.03.01-.04.01-.05.03-.12.04-.17,0-.01,0,0,0,0,.02-.06.03-.12.05-.18,0-.01,0-.03.01-.04.01-.05.02-.09.04-.14,0-.01,0-.04.01-.05.03-.12.06-.24.09-.35,0-.02,0-.03.01-.06.01-.04.02-.09.03-.13,0-.02,0-.03.01-.05.01-.06.03-.11.04-.17,0-.02,0-.02.01-.05.01-.05.02-.09.03-.13,0-.02,0-.03.01-.06.01-.05.03-.1.04-.15,0-.01,0-.01,0-.02.02-.06.03-.12.05-.18,0-.01,0-.02,0-.03.01-.05.02-.1.04-.15,0-.01,0-.04.01-.05.01-.06.03-.12.04-.17,0-.01,0,0,0-.02.01-.05.03-.11.04-.16,0-.01,0-.04.01-.05.01-.05.02-.09.04-.14,0-.01,0-.03,0-.04.01-.06.03-.12.04-.18,0-.01,0-.03,0-.04.01-.05.02-.1.04-.15,0-.02,0-.02.01-.05.01-.05.03-.1.04-.15,0-.01,0-.01,0-.03.02-.06.03-.11.04-.18,0-.01,0-.03.01-.05.01-.05.02-.09.03-.14,0-.01.01-.04.01-.05.01-.06.03-.12.04-.18h0c.01-.06.03-.12.04-.17,0-.01.01-.04.01-.06.01-.05.02-.09.03-.13,0-.02,0-.02.01-.05.01-.06.03-.11.04-.17,0-.02,0-.03.01-.06.01-.04.02-.08.03-.12,0-.02,0-.04.02-.06.01-.05.02-.09.03-.13,0-.01,0-.04.01-.05.01-.06.03-.11.04-.17,0-.01.01-.04.01-.05.01-.04.02-.09.03-.13,0-.01.01-.05.01-.06.01-.06.03-.12.04-.17h0c.01-.06.03-.12.04-.18,0-.01.01-.04.01-.05.01-.04.02-.09.03-.13,0-.02,0-.03.01-.05.01-.06.03-.11.04-.17,0-.02,0-.03.01-.06.01-.05.02-.08.03-.13,0-.02,0-.03.01-.06.01-.05.02-.1.04-.15,0-.01,0-.01,0-.02.01-.06.03-.12.04-.17,0-.01.01-.05.01-.06.01-.04.02-.08.03-.12,0-.02.01-.04.02-.07.01-.06.03-.11.04-.17,0-.01,0-.02,0-.03.01-.05.02-.1.04-.15,0-.02.01-.04.02-.07,0-.04.02-.08.03-.12,0-.02.01-.04.02-.07.01-.05.03-.11.04-.16,0-.02.01-.04.02-.07,0-.04.02-.07.03-.11,0-.02.01-.05.02-.07,0-.04.02-.08.03-.12,0-.02,0-.03.01-.05.01-.06.03-.11.04-.17,0-.01.01-.05.01-.06,0-.04.02-.08.03-.11,0-.02.01-.05.02-.07.01-.05.02-.1.04-.16,0-.01,0-.03,0-.04.01-.05.02-.1.04-.15,0-.02,0-.04.01-.06,0-.04.02-.08.03-.12,0-.02,0-.03.01-.06.01-.06.03-.11.04-.17,0-.02,0-.03.01-.05.01-.05.02-.08.03-.13,0-.02,0-.03.01-.06.01-.05.02-.09.03-.14,0-.01,0-.03,0-.04.01-.06.03-.11.04-.17,0-.01,0-.04.01-.05,0-.04.02-.09.03-.13,0-.01.01-.04.01-.06.01-.05.03-.11.04-.16,0-.01,0-.02,0-.04.01-.05.02-.09.03-.14,0-.02,0-.04.02-.06,0-.04.02-.08.03-.12,0-.02,0-.03.01-.06.01-.05.03-.11.04-.16,0-.02.01-.04.02-.07,0-.04.02-.07.03-.11,0-.02,0-.04.02-.07.01-.05.02-.09.03-.13,0-.01,0-.03.01-.05.01-.05.03-.12.04-.17,0-.01.01-.05.01-.06,0-.04.02-.07.03-.11,0-.02.01-.05.02-.07.01-.05.02-.09.03-.14,0-.02.01-.05.02-.07.01-.05.02-.08.03-.13,0-.02.01-.05.02-.07,0-.04.02-.08.03-.11,0-.02,0-.04.01-.06.01-.06.02-.11.04-.17,0-.02,0-.04.01-.06,0-.04.02-.08.03-.11,0-.02.01-.05.02-.07,0-.04.02-.08.03-.12,0-.02,0-.03.01-.05.01-.05.03-.11.04-.17,0-.02,0-.04.02-.07,0-.03.02-.08.02-.11,0-.02.01-.05.02-.07.01-.05.02-.11.04-.16,0-.01,0-.02,0-.03.01-.05.02-.1.03-.15,0-.02.01-.05.02-.07,0-.04.02-.07.02-.11,0-.02.01-.05.02-.08.01-.05.02-.1.04-.16,0-.02.01-.05.02-.07,0-.03.02-.07.02-.1,0-.02.01-.06.02-.08,0-.04.02-.07.02-.11,0-.02,0-.04.02-.07.01-.06.02-.11.04-.17,0-.01,0-.04.01-.06,0-.04.02-.08.03-.12,0-.02.01-.05.02-.07.01-.05.02-.09.03-.14,0-.02,0-.04.01-.06.01-.05.02-.09.03-.14,0-.02.01-.05.02-.07,0-.03.02-.07.02-.1,0-.02.01-.05.02-.07.01-.05.02-.11.04-.16,0-.02,0-.03.01-.05,0-.05.02-.08.03-.13,0-.02,0-.04.01-.06,0-.04.02-.09.03-.13,0-.01,0-.03.01-.05.01-.06.02-.11.04-.17,0-.01,0-.04.01-.06,0-.04.02-.08.03-.12,0-.02,0-.05.02-.07.01-.05.02-.1.03-.15,0-.01,0-.03,0-.04.01-.05.02-.1.03-.15,0-.02,0-.04.01-.06,0-.04.02-.08.03-.12,0-.02,0-.04.01-.06.01-.05.02-.11.04-.16,0-.02,0-.04.01-.07,0-.04.02-.08.02-.12,0-.02,0-.04.01-.07,0-.05.02-.08.03-.13,0-.02,0-.03.01-.05.01-.05.02-.11.04-.17,0-.01,0-.05.01-.06,0-.04.02-.08.03-.13,0-.01,0-.05.01-.06.01-.06.03-.12.04-.18h0c.01-.06.02-.12.04-.18,0-.01,0-.05.01-.06,0-.04.02-.09.03-.13,0-.01,0-.04.01-.05.01-.06.02-.11.04-.17,0-.02,0-.03.01-.05,0-.05.02-.08.03-.13,0-.02,0-.03.01-.06.01-.05.02-.1.03-.15,0-.01,0-.01,0-.03.01-.06.02-.12.04-.18,0-.01,0-.05.01-.06,0-.04.02-.08.03-.12,0-.02,0-.04.01-.07.02-.12.05-.23.07-.35,0-.02,0-.04.01-.06,0-.04.02-.09.03-.13,0-.02,0-.03.01-.05.01-.06.02-.11.04-.17,0-.02,0-.03.01-.05,0-.04.02-.08.02-.12,0-.02,0-.05.01-.07,0-.04.02-.08.02-.12,0-.02,0-.03.01-.06.01-.05.02-.11.03-.17,0-.01.01-.05.01-.06,0-.04.01-.07.02-.11,0-.02,0-.05.01-.07.01-.06.02-.11.03-.17h0c.01-.06.02-.12.04-.18,0-.01,0-.04.01-.06,0-.04.02-.09.03-.13,0-.01,0-.04.01-.05.01-.06.02-.11.03-.17,0-.02,0-.03.01-.05,0-.05.02-.08.03-.13,0-.02,0-.04.01-.06,0-.05.02-.09.03-.14,0-.01,0-.03,0-.04.01-.06.02-.12.03-.17,0-.01,0-.04.01-.05,0-.04.02-.09.03-.13,0-.01.01-.05.01-.06,0-.05.02-.1.03-.15,0-.02,0-.02,0-.04,0-.05.02-.1.03-.15,0-.02,0-.05.01-.07,0-.04.01-.07.02-.12,0-.02,0-.04.01-.06.01-.05.02-.11.03-.16,0-.02,0-.04.01-.07,0-.04.01-.08.02-.11,0-.02,0-.04.01-.07,0-.05.02-.09.03-.13,0-.02,0-.03,0-.05.01-.06.02-.11.03-.17,0-.01,0-.05.01-.06,0-.04.02-.08.02-.12,0-.02,0-.04.01-.07.02-.12.05-.24.07-.35,0-.01,0-.04.01-.06,0-.05.02-.09.03-.14,0-.01,0-.03,0-.04.01-.06.02-.12.03-.18,0-.01,0-.04,0-.05,0-.05.02-.09.03-.14,0-.02,0-.03,0-.05,0-.05.02-.1.03-.15,0-.01,0-.02,0-.03.01-.06.02-.12.03-.18,0-.01,0-.04,0-.05,0-.04.02-.09.02-.13,0-.01,0-.05.01-.06.02-.12.04-.23.07-.35,0-.02,0-.04.01-.06,0-.04.02-.09.02-.13,0-.01,0-.04.01-.05.01-.06.02-.11.03-.17,0-.02,0-.03.01-.06,0-.05.02-.08.02-.13,0-.02,0-.04.01-.06,0-.05.02-.09.03-.14,0-.01,0-.03,0-.04.01-.06.02-.12.03-.18,0-.01,0-.03,0-.04,0-.05.02-.09.03-.14,0-.01,0-.05.01-.06.01-.06.02-.11.03-.17h0c.01-.07.02-.13.03-.18,0-.01,0-.05.01-.06,0-.04.02-.09.02-.13,0-.01,0-.04,0-.05.01-.06.02-.12.03-.18,0-.01,0-.03,0-.04,0-.05.02-.1.03-.14,0-.02,0-.03,0-.05,0-.05.02-.1.03-.15,0-.01,0-.02,0-.03.01-.06.02-.12.03-.18,0-.01,0-.03,0-.04,0-.05.02-.09.03-.14,0-.01,0-.04.01-.06.02-.12.04-.24.06-.36,0-.01,0-.04,0-.05,0-.05.02-.09.03-.14,0-.01,0-.03,0-.04.01-.06.02-.12.03-.18,0-.01,0-.03,0-.04,0-.05.02-.09.02-.14,0-.02,0-.03.01-.06,0-.05.02-.1.03-.15,0-.01,0-.02,0-.04.01-.06.02-.12.03-.18,0-.01,0-.03,0-.05,0-.04.02-.09.02-.14,0-.01,0-.04,0-.05,0-.05.02-.12.03-.17h0c.01-.07.02-.13.03-.19,0-.01,0-.04,0-.06,0-.04.02-.1.02-.14,0-.01,0-.03,0-.05.01-.06.02-.12.03-.18,0-.01,0-.03,0-.04,0-.05.02-.1.03-.15,0-.02,0-.02,0-.05,0-.05.02-.11.03-.16,0-.01,0-.01,0-.03.01-.06.02-.12.03-.18,0-.01,0-.04,0-.05,0-.04.02-.09.02-.13,0-.02,0-.04.01-.06.02-.12.04-.24.06-.35,0-.01,0-.05.01-.06,0-.04.01-.09.02-.13,0-.01,0-.04,0-.06,0-.06.02-.11.03-.17,0-.02,0-.03,0-.06,0-.04.01-.09.02-.12,0-.02,0-.04.01-.07,0-.04.01-.09.02-.13,0-.02,0-.03,0-.05.01-.06.02-.12.03-.18,0-.01,0-.03,0-.05,0-.05.02-.09.02-.14,0-.01,0-.04,0-.06.02-.12.04-.24.06-.37,0-.01,0-.03,0-.04,0-.05.02-.1.02-.15,0-.01,0-.03,0-.04,0-.06.02-.12.03-.18,0-.01,0-.02,0-.03,0-.05.02-.1.03-.16,0-.02,0-.02,0-.05,0-.05.02-.1.03-.15,0-.01,0-.02,0-.03,0-.06.02-.13.03-.19,0-.01,0-.02,0-.03,0-.05.02-.11.03-.16,0-.01,0-.03,0-.05.02-.12.04-.25.06-.37,0-.01,0-.04,0-.05,0-.05.02-.1.02-.15,0-.01,0-.03,0-.04,0-.06.02-.12.03-.18,0-.01,0-.03,0-.04,0-.05.02-.1.02-.15,0-.02,0-.02,0-.04,0-.06.02-.11.03-.16,0-.01,0-.01,0-.02.01-.06.02-.12.03-.19,0-.01,0-.02,0-.04,0-.05.02-.1.02-.15,0-.01,0-.03,0-.04.02-.13.04-.25.06-.37,0-.01,0-.03,0-.04,0-.05.02-.11.02-.16,0-.01,0-.02,0-.03,0-.06.02-.13.03-.19,0-.01,0,0,0-.02,0-.06.02-.11.03-.17,0-.01,0-.02,0-.04,0-.06.02-.12.03-.18h0c0-.07.02-.14.03-.2v-.02c.01-.06.02-.11.03-.16,0-.01,0-.03,0-.04.02-.13.04-.25.06-.38,0-.01,0-.02,0-.03,0-.06.02-.11.03-.17,0-.01,0-.01,0-.02,0-.06.02-.13.03-.19,0-.01,0,0,0-.02,0-.06.02-.11.03-.17,0-.01,0-.03,0-.04,0-.06.02-.12.03-.17,0-.01,0,0,0-.01.01-.07.02-.13.03-.2h0c0-.07.02-.13.03-.19,0-.01,0-.02,0-.03.02-.13.04-.25.06-.38,0-.01,0-.03,0-.04,0-.05.02-.11.02-.16,0-.01,0-.02,0-.03,0-.06.02-.13.03-.19,0-.01,0,0,0-.01,0-.06.02-.12.03-.18v-.03c.01-.06.02-.12.03-.18,0-.01,0,0,0-.01,0-.07.02-.13.03-.2h0c0-.07.02-.13.03-.19,0-.01,0-.02,0-.04.02-.13.04-.26.06-.38,0-.01,0-.01,0-.02,0-.06.02-.12.03-.18v-.02c.01-.06.02-.13.03-.19,0-.01,0,0,0-.02,0-.06.02-.12.03-.18,0-.01,0-.02,0-.03,0-.06.02-.12.03-.18h0c0-.07.02-.14.03-.2v-.02c.01-.06.02-.12.03-.18,0-.01,0-.01,0-.03.02-.13.04-.26.05-.39,0-.01,0-.02,0-.03,0-.06.02-.11.02-.17v-.02c.01-.06.02-.13.03-.19,0-.01,0,0,0-.02,0-.06.02-.11.02-.17,0-.01,0-.02,0-.03,0-.06.02-.12.03-.18h0c0-.07.02-.13.03-.2v-.02c.01-.06.02-.11.03-.17,0-.01,0-.03,0-.04.02-.13.03-.25.05-.38,0-.01,0-.02,0-.03,0-.05.02-.11.02-.17,0-.01,0-.02,0-.03,0-.06.02-.13.03-.19,0-.01,0,0,0,0,0-.06.02-.12.02-.18,0-.01,0-.02,0-.03,0-.06.02-.12.02-.18,0-.01,0,0,0-.02,0-.07.02-.13.03-.2v-.02c0-.06.02-.12.03-.17,0-.01,0-.02,0-.03.02-.13.03-.26.05-.39,0-.01,0-.01,0-.03,0-.06.02-.12.02-.18v-.02c.02-.13.04-.26.05-.39v-.03c.03-.2.05-.39.08-.59,0-.01,0,0,0-.02.02-.13.03-.27.05-.39,0-.01,0,0,0-.02,0-.06.01-.12.02-.18,0-.01,0-.01,0-.02,0-.06.02-.13.02-.2h0c0-.07.02-.13.02-.19v-.03c.01-.06.02-.12.03-.19h0c0-.07.02-.14.02-.2v-.02c0-.06.02-.12.02-.18,0-.01,0-.02,0-.03.02-.13.03-.26.05-.39,0-.01,0-.01,0-.03,0-.06.01-.12.02-.18h0c.02-.15.03-.27.05-.41v-.03c.01-.06.02-.12.03-.18h0c0-.08.02-.14.02-.21h0c0-.07.01-.13.02-.19,0-.01,0-.01,0-.03.02-.13.03-.26.05-.39,0-.01,0-.01,0-.03,0-.06.01-.11.02-.17,0-.01,0-.01,0-.03,0-.06.02-.13.02-.2h0c0-.07.01-.12.02-.19,0-.01,0-.02,0-.04.02-.2.04-.39.07-.58,0-.01,0-.01,0-.03.01-.13.03-.26.04-.39,0-.01,0,0,0-.02,0-.06.01-.12.02-.18h0c.02-.15.03-.28.04-.41v-.02c.02-.13.03-.27.05-.4h0c0-.07.01-.13.02-.2,0-.01,0,0,0-.02.01-.13.03-.27.04-.4h0c0-.07.01-.14.02-.2h0c.01-.14.03-.27.04-.41v-.02c0-.06.02-.13.02-.19h0c0-.07.01-.14.02-.21h0c0-.07.01-.13.02-.19,0-.01,0,0,0-.02.01-.13.03-.27.04-.4,0-.01,0,0,0-.02,0-.06.01-.13.02-.19h0c.01-.14.03-.28.04-.41h0c.02-.21.04-.41.06-.61,0-.01,0-.01,0-.02.01-.13.03-.26.04-.39,0-.01,0,0,0-.02,0-.06.01-.12.02-.18,0-.01,0,0,0-.02.01-.13.03-.26.04-.39,0-.01,0-.02,0-.03,0-.06.01-.13.02-.19h0c0-.07.01-.14.02-.2h0c0-.07.01-.13.02-.19,0-.01,0-.02,0-.03.01-.13.03-.26.04-.4,0-.01,0,0,0,0,0-.06.01-.13.02-.19h0c.01-.15.03-.28.04-.42h0c.02-.21.04-.41.06-.61,0-.01,0,0,0-.02.01-.13.03-.27.04-.4h0c0-.08.01-.14.02-.21h0c.01-.14.02-.28.04-.41v-.02c.02-.2.04-.4.06-.6,0-.01,0,0,0-.02.01-.13.02-.27.04-.4,0-.01,0,0,0-.01.02-.2.04-.41.05-.61h0c.02-.21.03-.41.05-.62h0c.01-.15.02-.28.03-.42,0-.01,0,0,0-.01,0-.06.01-.13.02-.19h0c.01-.14.02-.28.03-.41v-.02c.02-.2.03-.4.05-.61h0c.04-.56.09-1.11.13-1.66h0c.01-.15.02-.28.03-.42h0c0-.07,0-.14.02-.2h0c.01-.14.02-.28.03-.41h0c.02-.22.03-.42.04-.63h0c.04-.55.08-1.11.12-1.66h0c.92-13.58,1.12-27.31.59-41.15h0ZM571.43,50.44l-22.09,44.85c55.17,27.17,101.99,68.69,135.38,120.08l41.92-27.24c-38.51-59.27-92.44-106.77-155.22-137.69h0Z"/>
    <circle class="cls-2" cx="399.5" cy="399.5" r="270"/>
  </g>
  <g id="Layer_2">
    <path class="cls-1" d="M422,654s-9-89-30-109-22-21-39-25-66-19-54-69l12-50s-118,6-129-92c0,0,107-18,174,40,0,0,8-6,19-8,0,0,7.55-92.25,51.27-125.63,0,0,50.73,14.63,37.73,123.63,0,0,21,0,30,21,0,0,19-1,22,34,0,0,28,22,64,22s54-1,37,37-23,32-46,50c0,0-17,53-92,44l23,88"/>
  </g>
</svg>